<?xml version="1.0" encoding="UTF-8" standalone="no"?>
<!-- Created with Inkscape (http://www.inkscape.org/) -->

<svg
   xmlns:dc="http://purl.org/dc/elements/1.1/"
   xmlns:cc="http://creativecommons.org/ns#"
   xmlns:rdf="http://www.w3.org/1999/02/22-rdf-syntax-ns#"
   xmlns:svg="http://www.w3.org/2000/svg"
   xmlns="http://www.w3.org/2000/svg"
   xmlns:sodipodi="http://sodipodi.sourceforge.net/DTD/sodipodi-0.dtd"
   xmlns:inkscape="http://www.inkscape.org/namespaces/inkscape"
   width="744.09448"
   height="1052.3622"
   id="svg2"
   version="1.1"
   inkscape:version="0.48.4 r9939"
   sodipodi:docname="1_title_portrait.svg">
  <defs
     id="defs4" />
  <sodipodi:namedview
     id="base"
     pagecolor="#ffffff"
     bordercolor="#666666"
     borderopacity="1.0"
     inkscape:pageopacity="0.0"
     inkscape:pageshadow="2"
     inkscape:zoom="1.979899"
     inkscape:cx="215.48293"
     inkscape:cy="658.8126"
     inkscape:document-units="mm"
     inkscape:current-layer="layer3"
     showgrid="false"
     inkscape:window-width="1680"
     inkscape:window-height="1000"
     inkscape:window-x="0"
     inkscape:window-y="0"
     inkscape:window-maximized="1"
     showguides="false"
     inkscape:guide-bbox="true"
     units="mm"
     inkscape:snap-grids="false"
     inkscape:snap-bbox="true"
     inkscape:snap-bbox-midpoints="true"
     inkscape:snap-global="true"
     inkscape:snap-to-guides="true">
    <sodipodi:guide
       orientation="0,1"
       position="-35.433071,350.7874"
       id="guide3069" />
    <sodipodi:guide
       orientation="0,1"
       position="-35.433071,701.5748"
       id="guide3071" />
    <inkscape:grid
       units="mm"
       empspacing="10"
       visible="true"
       enabled="true"
       snapvisiblegridlinesonly="true"
       type="xygrid"
       id="grid3073" />
    <sodipodi:guide
       orientation="0,1"
       position="-35.433071,526.1811"
       id="guide3079" />
    <sodipodi:guide
       orientation="0,1"
       position="-35.433071,175.3937"
       id="guide3081" />
    <sodipodi:guide
       orientation="0,1"
       position="-35.433071,876.9685"
       id="guide3083" />
    <sodipodi:guide
       orientation="0,1"
       position="-35.433071,789.27165"
       id="guide3085" />
    <sodipodi:guide
       orientation="0,1"
       position="-35.433071,613.87795"
       id="guide3087" />
    <sodipodi:guide
       orientation="0,1"
       position="-35.433071,87.69685"
       id="guide3089" />
  </sodipodi:namedview>
  <metadata
     id="metadata7">
    <rdf:RDF>
      <cc:Work
         rdf:about="">
        <dc:format>image/svg+xml</dc:format>
        <dc:type
           rdf:resource="http://purl.org/dc/dcmitype/StillImage" />
        <dc:title />
      </cc:Work>
    </rdf:RDF>
  </metadata>
  <g
     inkscape:groupmode="layer"
     id="layer3"
     inkscape:label="Deckblatt"
     transform="translate(0,-2.5390623e-6)"
     style="display:inline">
    <g
       id="g3055"
       transform="translate(93.781433,248.90889)">
      <text
         sodipodi:linespacing="125%"
         id="text3047"
         y="434.14883"
         x="279.31418"
         style="font-size:16px;font-style:normal;font-variant:normal;font-weight:normal;font-stretch:normal;text-align:center;line-height:125%;letter-spacing:2.13999987px;word-spacing:0px;text-anchor:middle;fill:#000000;fill-opacity:1;stroke:none;font-family:EB Garamond 12 All SC;-inkscape-font-specification:EB Garamond 12 All SC"
         xml:space="preserve"><tspan
           y="434.14883"
           x="280.38419"
           id="tspan3049"
           sodipodi:role="line">joseph leopold edler von</tspan></text>
      <text
         sodipodi:linespacing="125%"
         id="text3051"
         y="452.66589"
         x="277.94019"
         style="font-size:12px;font-style:normal;font-variant:normal;font-weight:normal;font-stretch:normal;text-align:center;line-height:125%;letter-spacing:5.19000053px;word-spacing:0px;text-anchor:middle;fill:#d40000;fill-opacity:1;stroke:none;font-family:EB Garamond;-inkscape-font-specification:EB Garamond"
         xml:space="preserve"><tspan
           style="font-size:20px;letter-spacing:5.19000053px;fill:#d40000"
           y="452.66589"
           x="280.53519"
           id="tspan3053"
           sodipodi:role="line">EYBLER</tspan></text>
    </g>
    <text
       xml:space="preserve"
       style="font-size:12px;font-style:normal;font-variant:normal;font-weight:normal;font-stretch:normal;text-align:center;line-height:110.00000238%;letter-spacing:0px;word-spacing:0px;text-anchor:middle;fill:#000000;fill-opacity:1;stroke:none;font-family:EB Garamond;-inkscape-font-specification:EB Garamond"
       x="372.3208"
       y="412.09424"
       id="text3061"
       sodipodi:linespacing="110%"><tspan
         sodipodi:role="line"
         x="372.3208"
         y="412.09424"
         style="font-size:14px;font-style:normal;line-height:110.00000238%;-inkscape-font-specification:EB Garamond"
         id="tspan3013">Missa Sancti Wolfgangi</tspan><tspan
         sodipodi:role="line"
         x="372.3208"
         y="427.49423"
         style="font-size:14px;font-style:normal;line-height:110.00000238%;-inkscape-font-specification:EB Garamond"
         id="tspan3052" /><tspan
         sodipodi:role="line"
         x="372.3208"
         y="442.89423"
         style="font-size:14px;font-style:normal;line-height:110.00000238%;-inkscape-font-specification:EB Garamond"
         id="tspan3054">HerEy 11</tspan></text>
    <text
       xml:space="preserve"
       style="font-size:14px;font-style:normal;font-variant:normal;font-weight:normal;font-stretch:normal;text-align:center;line-height:125%;letter-spacing:1.84000015px;word-spacing:0px;text-anchor:middle;fill:#000000;fill-opacity:1;stroke:none;font-family:EB Garamond 12 All SC;-inkscape-font-specification:EB Garamond 12 All SC"
       x="372.06738"
       y="967.76636"
       id="text3099"
       sodipodi:linespacing="125%"><tspan
         sodipodi:role="line"
         x="372.9874"
         y="967.76636"
         id="tspan3023">full score</tspan></text>
    <text
       sodipodi:linespacing="110%"
       id="text3021"
       y="876.96851"
       x="371.86884"
       style="font-size:12px;font-style:normal;font-variant:normal;font-weight:normal;font-stretch:normal;text-align:center;line-height:110.00000238%;letter-spacing:0px;word-spacing:0px;text-anchor:middle;fill:#000000;fill-opacity:1;stroke:none;font-family:EB Garamond;-inkscape-font-specification:EB Garamond"
       xml:space="preserve"><tspan
         style="font-size:14px;font-style:normal;line-height:110.00000238%;-inkscape-font-specification:EB Garamond"
         y="876.96851"
         x="371.86884"
         sodipodi:role="line"
         id="tspan3097">S, A, T, B (Soli), S, A, T, B (coro), 2 ob, 2 tr, timp, 2 vl, vla, vlc, b, org</tspan></text>
    <path
       style="fill:#000000"
       d="m 159.21459,326.1024 c -0.84273,-1.01627 -0.85156,-9.0031 -0.0143,-12.97505 1.84671,-8.76125 2.37572,-10.98634 2.72427,-11.45879 0.21626,-0.29313 0.81254,-1.85206 1.32506,-3.46429 0.51253,-1.61222 1.49288,-4.13049 2.17856,-5.59615 0.68568,-1.46566 1.41073,-3.38434 1.61122,-4.26374 0.20049,-0.87939 0.65938,-2.07857 1.01976,-2.66483 0.36038,-0.58627 0.9587,-2.02528 1.3296,-3.1978 0.76646,-2.42298 8.61392,-17.83382 10.25455,-20.13788 2.21336,-3.10838 4.56196,-8.18928 4.91868,-10.64097 0.32936,-2.26362 0.2608,-2.53159 -0.64764,-2.53159 -1.44398,0 -2.79641,-1.70021 -3.36484,-4.23012 -0.58882,-2.62065 1.1031,-10.17163 3.07573,-13.72685 0.68188,-1.22893 1.23979,-2.56577 1.23979,-2.97074 0,-0.40497 0.83942,-1.91698 1.86538,-3.36002 1.02596,-1.44303 1.86539,-2.99231 1.86539,-3.44283 0,-0.45052 0.85106,-2.13013 1.89124,-3.73247 1.04018,-1.60234 2.25728,-3.75277 2.70466,-4.77873 0.44739,-1.02596 1.24906,-2.82473 1.78151,-3.99725 0.53245,-1.17253 1.66223,-3.81072 2.51062,-5.86264 1.17996,-2.85385 1.81997,-3.7708 2.72286,-3.90108 1.44099,-0.20792 1.56969,1.13803 0.38087,3.98329 -1.16301,2.78345 -1.05611,3.01512 1.19917,2.59878 2.03433,-0.37555 4.39698,-2.10252 4.39698,-3.21396 0,-0.81681 2.28345,-2.93132 3.16553,-2.93132 0.99568,0 0.30839,3.04484 -0.94233,4.17467 -0.85533,0.77267 -1.78746,2.69448 -3.27451,6.75116 -2.09232,5.70785 -4.87294,14.39858 -6.45683,20.1806 -0.55122,2.01224 -1.31246,4.29067 -1.69164,5.06318 -0.37918,0.77251 -1.25859,3.20333 -1.95426,5.40182 -0.69567,2.19849 -1.4491,4.47692 -1.6743,5.06319 -0.2252,0.58626 -0.53201,1.78544 -0.6818,2.66483 -0.1498,0.8794 -0.43473,2.01862 -0.63318,2.5316 -0.62769,1.62248 1.74789,1.03411 7.28731,-1.80487 2.52646,-1.29482 3.22799,-1.25337 4.66439,0.2756 0.99625,1.06046 1.48508,1.20271 2.97683,0.86627 1.29021,-0.29099 2.00272,-0.18467 2.57105,0.38366 0.69298,0.69298 0.8933,0.46383 1.68913,-1.93219 0.4966,-1.49513 1.12347,-2.71842 1.39305,-2.71842 0.26957,0 0.49013,-0.23518 0.49013,-0.52262 0,-0.28744 0.78668,-1.78641 1.74816,-3.33104 0.9615,-1.54463 2.05096,-3.40801 2.42103,-4.14084 1.22043,-2.41672 5.87245,-8.02983 6.2067,-7.48899 0.27728,0.44864 -0.91442,2.88385 -1.83914,3.75822 -1.48462,1.4038 -5.33895,8.17881 -5.33895,9.38463 0,0.1847 -0.8651,1.75994 -1.92246,3.50053 -2.1629,3.56051 -3.70134,7.3051 -4.77867,11.63132 -0.80335,3.22602 -4.26261,10.12637 -5.07652,10.12637 -1.03637,0 -1.14015,-1.74644 -0.21665,-3.64597 1.39568,-2.87076 2.92513,-8.10201 2.92979,-10.02091 0.003,-1.0424 -0.31606,-1.79796 -0.84347,-2.00035 -1.15123,-0.44176 -1.57049,-0.1066 -2.96062,2.36683 -1.14037,2.02901 -3.99657,4.23996 -5.47735,4.23996 -0.38341,0 -1.32904,-0.49707 -2.1014,-1.10461 -1.57096,-1.23571 -1.84041,-3.19963 -0.58226,-4.2438 1.49652,-1.242 -0.0297,-1.71068 -2.21691,-0.6808 -1.93515,0.9112 -2.15547,1.26221 -3.45206,5.49989 -0.76174,2.48962 -1.94271,6.92493 -2.62438,9.85625 -0.68168,2.93132 -1.5229,5.92926 -1.86939,6.66209 -0.3465,0.73282 -0.91743,2.50786 -1.26874,3.94452 -0.35132,1.43665 -1.0314,3.35533 -1.51129,4.26373 -0.77078,1.45902 -2.32766,5.56354 -5.4783,14.44284 -0.81735,2.30351 -2.05836,5.45249 -4.83096,12.25825 -0.35826,0.87939 -0.7127,1.89517 -0.78766,2.25728 -0.075,0.3621 -0.69765,1.55789 -1.38376,2.6573 -0.68612,1.09941 -1.48732,2.41355 -1.78045,2.92031 -4.19816,7.25769 -6.88895,9.38482 -8.86194,7.00554 z m 4.271,-2.86996 c 2.21825,-2.21824 8.23635,-14.63242 10.97041,-22.62982 0.8017,-2.34505 1.77667,-4.9854 2.1666,-5.86745 0.65372,-1.47873 5.12705,-17.81776 6.05422,-22.11331 0.22145,-1.02597 0.68446,-2.38925 1.02892,-3.02953 0.34445,-0.64027 0.62628,-1.68058 0.62628,-2.31179 0,-0.63121 0.76259,-3.40197 1.69465,-6.15724 0.93206,-2.75527 1.56598,-5.13825 1.4087,-5.29553 -0.62041,-0.62041 -1.97468,0.43556 -2.61953,2.04255 -0.37384,0.93161 -1.63669,3.12117 -2.80634,4.86569 -2.32514,3.4679 -4.74166,7.82551 -8.88115,16.01497 -1.48168,2.93132 -2.89715,5.68942 -3.14548,6.12912 -0.24834,0.4397 -1.10054,2.83805 -1.89378,5.32967 -0.79323,2.49162 -1.87841,5.48956 -2.41151,6.66209 -1.30922,2.8796 -4.62664,14.76412 -5.21557,18.6846 -0.43213,2.87667 -0.47622,4.60729 -0.20627,8.09699 0.12796,1.65419 1.30854,1.50031 3.22985,-0.42101 z m 38.32243,-69.51237 c -0.28701,-1.99347 -1.82302,-1.5539 -2.7609,0.7901 -0.48259,1.20612 -0.72683,2.43663 -0.54275,2.73447 0.52976,0.85718 3.48116,-2.29159 3.30365,-3.52457 z m -12.10118,-7.14917 c 0.1714,-0.182 0.72966,-1.53009 1.24057,-2.99575 0.51092,-1.46566 1.12259,-3.1445 1.35928,-3.73077 0.23669,-0.58626 1.21912,-3.5842 2.18318,-6.66208 0.96406,-3.07789 1.95466,-5.95591 2.20132,-6.39561 0.24666,-0.4397 1.14079,-2.83805 1.98694,-5.32967 0.84616,-2.49162 2.28147,-6.55729 3.18959,-9.03483 0.90811,-2.47753 1.65111,-4.55327 1.65111,-4.61274 0,-0.0595 -1.0193,0.009 -2.26511,0.15239 -2.72476,0.31339 -5.20172,2.71334 -7.4744,7.24202 -0.81319,1.62041 -1.83249,3.23996 -2.26511,3.599 -0.43262,0.35905 -0.78658,0.95383 -0.78658,1.32174 0,0.36792 -0.37067,0.97656 -0.82371,1.35255 -0.45304,0.37599 -0.71134,0.97644 -0.574,1.33434 0.13734,0.3579 -0.33142,1.50593 -1.04168,2.55117 -0.71026,1.04525 -1.29138,2.04846 -1.29138,2.22936 0,0.1809 -0.63401,1.69259 -1.4089,3.35932 -0.77489,1.66672 -1.59267,3.86983 -1.81727,4.89579 -0.22461,1.02596 -0.72168,3.25541 -1.10459,4.95432 -0.74209,3.29244 -0.2838,5.03938 1.25099,4.76869 0.42686,-0.0753 1.20817,0.34055 1.73625,0.92407 0.91056,1.00616 3.1385,1.04831 4.0535,0.0767 z m 376.50786,77.23488 c -0.31949,-0.51694 2.80228,-2.73076 5.4781,-3.88483 1.9473,-0.83986 6.50185,-4.61066 6.50185,-5.38302 0,-0.34211 0.53963,-1.21916 1.19918,-1.94899 4.18474,-4.6307 5.40549,-16.20665 2.2,-20.86182 -3.44063,-4.99666 -10.3675,-9.51774 -16.69115,-10.8941 -2.2162,-0.48236 -4.2573,-1.0882 -4.53577,-1.34629 -0.27848,-0.2581 -1.88121,-0.46927 -3.56162,-0.46927 -2.71439,0 -3.09248,0.1338 -3.38857,1.19918 -1.34592,4.8428 -6.07946,14.9735 -7.39617,15.82924 -1.81495,1.17956 -2.264,-0.1782 -1.00127,-3.02749 0.61964,-1.39817 1.26591,-3.19729 1.43617,-3.99802 0.17025,-0.80074 1.02367,-2.26922 1.89648,-3.2633 1.55067,-1.76612 3.8718,-6.23984 3.45415,-6.65749 -0.11557,-0.11557 -0.78677,-0.0654 -1.49154,0.11148 -0.9748,0.24465 -1.69631,1.27323 -3.01552,4.29888 -2.04088,4.68083 -3.31877,6.12 -4.53668,5.10923 -1.26175,-1.04717 -0.96841,-2.38202 1.05594,-4.80501 1.02596,-1.22799 1.86538,-2.54979 1.86538,-2.93733 0,-0.38753 0.2998,-0.81168 0.66621,-0.94254 0.36642,-0.13086 0.52295,-0.39404 0.34785,-0.58484 -0.1751,-0.19081 -0.8946,0.1003 -1.5989,0.64689 -0.7043,0.5466 -1.58033,0.88972 -1.94675,0.7625 -0.36641,-0.12721 -0.66621,0.0353 -0.66621,0.36124 0,0.3259 -0.83942,2.36146 -1.86538,4.52347 -1.02596,2.162 -1.86539,4.19378 -1.86539,4.51505 0,0.32128 -0.22367,0.58413 -0.49705,0.58413 -0.27338,0 -0.65132,0.48607 -0.83987,1.08014 -0.18855,0.59407 -0.94469,1.47449 -1.68031,1.95648 -1.14173,0.7481 -1.40868,0.76552 -1.82401,0.11905 -1.01804,-1.58461 0.41027,-5.26073 3.85746,-9.92824 2.88187,-3.90205 2.77258,-4.51394 -0.64518,-3.61235 -2.97034,0.78356 -4.23368,1.59939 -4.23368,2.73399 0,0.41032 -0.96201,2.65938 -2.13781,4.99793 -1.56194,3.10653 -2.41488,4.25191 -3.16635,4.25191 -0.56569,0 -1.18293,-0.24983 -1.37164,-0.55516 -0.37111,-0.60048 1.66223,-7.848 2.4827,-8.8492 0.66191,-0.8077 -3.85616,0.72112 -4.66242,1.57768 -0.327,0.34739 -1.28037,1.95071 -2.1186,3.56294 -2.93544,5.64593 -5.08596,7.68645 -5.89069,5.58937 -0.17016,-0.44343 -0.0634,-1.10298 0.2373,-1.46566 1.0339,-1.24712 4.31106,-7.3215 3.94061,-7.30411 -0.20393,0.01 -1.68988,0.5006 -3.30211,1.09119 -1.61222,0.59059 -3.29107,1.20228 -3.73077,1.35933 -0.84267,0.30097 -3.1978,3.63288 -3.1978,4.52407 0,0.78541 -1.66701,3.88194 -2.31403,4.29839 -1.55535,1.0011 -1.96002,-2.29822 -0.6036,-4.92125 0.76045,-1.47054 0.74856,-1.57243 -0.1834,-1.57243 -0.54809,0 -3.55751,1.31909 -6.6876,2.93132 -3.13008,1.61222 -6.16542,2.93132 -6.74517,2.93132 -2.70569,0 0.45807,-3.6686 4.81338,-5.58145 1.31643,-0.57817 2.51342,-1.18609 2.65998,-1.35094 0.14657,-0.16485 2.42136,-1.27612 5.05511,-2.4695 l 4.78861,-2.16978 2.69556,-5.27323 c 1.48256,-2.90028 2.98155,-5.7529 3.33108,-6.33917 0.34953,-0.58626 1.10222,-2.50494 1.67265,-4.26373 0.57043,-1.75879 1.21528,-3.65915 1.433,-4.22303 0.30973,-0.80215 0.21027,-0.954 -0.45715,-0.69788 -1.21313,0.46552 -2.20598,-0.88759 -1.55026,-2.1128 1.45526,-2.71917 3.89795,-3.51945 5.06852,-1.66055 0.65843,1.04559 -0.24639,5.27905 -1.84951,8.65352 -0.5464,1.15012 -0.88617,2.19839 -0.75506,2.32951 0.13111,0.13111 1.62797,-1.00014 3.32636,-2.51389 3.15827,-2.81492 4.82383,-3.60821 6.34781,-3.0234 0.70507,0.27055 0.80431,0.8584 0.54554,3.23149 l -0.31631,2.90077 1.93804,-1.31518 c 1.79971,-1.22133 2.00631,-1.2534 2.89466,-0.44945 0.67861,0.61413 0.86717,1.31306 0.6488,2.40491 -0.40557,2.02785 0.48378,1.98736 2.34985,-0.10699 1.40351,-1.57519 4.28651,-3.15055 5.76572,-3.15055 0.92478,0 1.51752,1.92416 1.35405,4.39552 l -0.1321,1.99717 1.59872,-0.91755 c 1.51512,-0.86955 1.65261,-0.86878 2.62907,0.0149 0.91836,0.83111 1.10366,0.8441 1.70498,0.11955 1.51546,-1.82601 3.74193,-0.71759 3.74193,1.86287 0,0.78029 0.53564,1.05765 2.5316,1.31088 5.49666,0.69738 13.38497,3.1729 16.20898,5.08673 1.27139,0.86161 2.52549,1.57093 2.78689,1.57627 0.26139,0.005 1.10082,0.67382 1.86538,1.48551 6.55184,6.95576 8.12557,10.33144 7.0868,15.20135 -0.32569,1.52687 -0.72511,3.60428 -0.88762,4.61646 -0.32007,1.9936 -2.98432,7.77385 -4.85623,10.53588 -1.49271,2.20253 -4.95522,4.83722 -9.17543,6.98177 -3.75515,1.90823 -3.65736,1.88001 -4.08977,1.18034 z M 519.87581,281.1352 c 3.01301,-1.03662 5.49296,-3.12891 5.53594,-4.67057 0.0106,-0.37809 0.47881,-1.58842 1.0406,-2.68962 1.27948,-2.50798 2.02941,-6.17046 1.20504,-5.88508 -1.13904,0.3943 -8.08911,6.94305 -8.08911,7.62201 0,0.37984 -0.95934,1.78048 -2.13187,3.11254 -3.36856,3.82689 -2.87189,4.33808 2.4394,2.51072 z m 11.88058,-3.47197 c 0.3875,-0.38134 2.20045,-6.28651 1.99356,-6.49341 -0.34905,-0.34904 -2.88166,2.40495 -3.23478,3.51754 -0.18047,0.56861 -0.66306,1.16235 -1.07242,1.31944 -0.40937,0.15709 -1.02509,0.81026 -1.36826,1.4515 -0.60442,1.12936 -0.5596,1.15386 1.43079,0.78202 1.13012,-0.21112 2.14311,-0.47081 2.25111,-0.57709 z m 8.61593,-0.72888 c 1.93703,-0.11549 3.68029,-5.9114 1.77801,-5.9114 -0.6817,0 -6.59304,5.39012 -6.59304,6.01171 0,0.12755 1.52667,0.0958 4.81503,-0.10031 z m -346.71338,31.91636 c -6.54629,-0.65542 -13.76817,-3.35723 -14.41416,-5.39256 -0.53986,-1.70093 0.12036,-1.78576 2.27951,-0.29291 2.85857,1.97644 11.21575,4.0974 16.13191,4.0941 9.14405,-0.006 17.03766,-2.42031 24.25,-7.41662 1.75879,-1.21839 4.15714,-2.8367 5.32967,-3.59624 3.15383,-2.04299 10.85191,-10.11796 13.67084,-14.34016 2.27226,-3.40339 4.23002,-7.74471 5.26847,-11.68282 0.23189,-0.87939 0.80799,-3.01208 1.28023,-4.7393 0.47224,-1.72723 0.79282,-3.20472 0.7124,-3.28334 -0.0804,-0.0786 -2.6039,1.61417 -5.60771,3.76173 -3.00382,2.14756 -5.71497,3.98914 -6.02476,4.09241 -0.3098,0.10326 -0.7944,1.26269 -1.07689,2.57648 -0.57475,2.67305 -1.19213,4.08028 -3.14939,7.1786 -3.48044,5.5095 -6.34596,7.6344 -8.48673,6.29325 -2.50257,-1.56783 -0.008,-7.21952 5.64588,-12.79162 3.36045,-3.31181 3.89678,-4.09604 3.89678,-5.69794 0,-1.02167 -0.23984,-2.0058 -0.53297,-2.18697 -0.75154,-0.46447 -0.66348,-5.25227 0.12942,-7.03674 0.36431,-0.8199 1.08382,-1.95567 1.5989,-2.52392 0.51508,-0.56825 0.93652,-1.59599 0.93652,-2.28386 0,-1.49878 -0.70053,-1.22322 -4.31913,1.69902 -4.55318,3.67695 -6.24571,4.69965 -7.18272,4.34009 -0.89532,-0.34356 -0.99429,-2.61411 -0.18025,-4.13516 0.96637,-1.80567 0.10293,-1.74397 -1.59397,0.1139 -0.88231,0.966 -1.74917,2.41639 -1.92634,3.2231 -0.47572,2.16589 -1.68224,3.00504 -2.76453,1.92275 -0.78933,-0.78934 -0.77125,-1.09527 0.22444,-3.7982 1.16819,-3.17123 1.08499,-3.76295 -0.41611,-2.95958 -1.38654,0.74205 -1.88307,-0.38002 -0.73133,-1.65267 1.00959,-1.11559 4.19207,-1.42852 4.78421,-0.47043 0.22986,0.37192 0.79179,0.27068 1.66187,-0.29942 2.03012,-1.33019 3.50567,-0.84521 4.06602,1.3364 0.26353,1.02596 0.56758,1.95539 0.67568,2.06541 0.10809,0.11002 1.82534,-0.99897 3.81611,-2.46442 3.29658,-2.42669 6.57906,-4.3977 7.32386,-4.3977 0.16113,0 0.29295,0.94341 0.29295,2.09647 0,1.86995 0.15256,2.11469 1.41191,2.26511 1.81674,0.217 2.80124,1.68138 1.99449,2.96672 -0.41849,0.66675 -1.42553,0.97773 -3.53183,1.09065 -2.92864,0.15701 -2.95164,0.1716 -3.80885,2.41617 -0.47433,1.24202 -0.86242,2.66646 -0.86242,3.16544 0,1.50293 1.25682,5.71922 1.70483,5.71922 0.2298,0 1.55911,-0.86035 2.95402,-1.91189 1.39492,-1.05154 3.23236,-2.43059 4.08322,-3.06456 4.29493,-3.20012 6.71565,-5.42158 6.73092,-6.17686 0.009,-0.46114 0.36908,-1.304 0.79945,-1.873 0.43038,-0.56901 0.78251,-1.33969 0.78251,-1.71261 0,-1.03688 7.34948,-13.57841 8.93108,-15.24047 2.22982,-2.34325 4.95015,-1.62668 4.04669,1.06593 -1.30374,3.88555 -4.74922,9.74734 -8.38,14.25687 -3.43852,4.27074 -4.31551,5.72242 -4.41397,7.30641 -0.0676,1.0872 -0.36072,2.42116 -0.65142,2.96434 -0.29071,0.54318 -0.91146,2.63865 -1.37945,4.6566 -0.46799,2.01794 -1.56295,4.98365 -2.43323,6.59046 -0.87029,1.60681 -1.58234,3.20787 -1.58234,3.5579 0,0.35004 -1.19918,2.47338 -2.66484,4.71854 -1.46566,2.24517 -2.66483,4.17064 -2.66483,4.27883 0,0.10818 -0.77947,1.01375 -1.73214,2.01238 -0.95268,0.99863 -2.75008,2.93742 -3.99422,4.30844 -1.24415,1.37101 -3.2501,3.15616 -4.45767,3.96701 -7.4948,5.0325 -12.81466,8.09808 -14.09911,8.12464 -0.31135,0.006 -1.51053,0.46566 -2.66483,1.0205 -1.97189,0.94782 -12.57949,2.82459 -14.8977,2.6358 -0.582,-0.0474 -2.73702,-0.25427 -4.78895,-0.4597 z m 34.63983,-27.27762 c 3.03196,-3.37226 5.49146,-7.8853 4.29731,-7.8853 -1.05524,0 -3.16526,2.25633 -5.68434,6.07851 -3.41949,5.18834 -2.606,6.248 1.38703,1.80679 z m 29.84918,-34.03987 c 1.71133,-2.82141 3.49839,-6.49997 3.2691,-6.72927 -0.52101,-0.521 -1.40414,0.4588 -2.64178,2.93093 -0.68979,1.37781 -1.89258,3.65701 -2.67288,5.0649 -0.7803,1.40789 -1.41606,2.72699 -1.41281,2.93132 0.006,0.39022 2.54365,-2.68982 3.45837,-4.19788 z m 161.49576,50.6311 c 0.68435,-4.05063 3.04746,-7.15026 12.61577,-16.54785 3.17066,-3.11408 5.76484,-5.91541 5.76484,-6.22517 0,-0.30976 0.70399,-2.08418 1.56443,-3.94315 1.87404,-4.04888 2.76346,-9.14835 1.51183,-8.66805 -0.43699,0.16768 -1.10009,0.83179 -1.47356,1.47579 -1.31617,2.26956 -7.44827,7.37741 -8.64493,7.20095 -1.72815,-0.25483 -1.66485,-0.99776 0.37342,-4.38265 1.02966,-1.70992 1.87211,-3.19981 1.87211,-3.31086 0,-0.11105 -0.58543,-0.20191 -1.30096,-0.20191 -1.53362,0 -2.15891,-0.73783 -1.22476,-1.4452 0.78896,-0.59745 4.68997,-1.75261 5.9186,-1.75261 1.12655,0 1.13169,1.7713 0.0101,3.48304 -1.41988,2.16702 -0.39097,1.50825 3.35902,-2.15062 3.30358,-3.2233 4.36142,-3.88847 5.06502,-3.18488 0.37159,0.3716 -0.91306,8.04616 -1.71977,10.2739 -0.3504,0.96764 -0.53034,1.86611 -0.39986,1.99658 0.45396,0.45397 6.14074,-2.96571 7.79517,-4.68753 0.91596,-0.95328 2.29194,-2.93241 3.05773,-4.39807 3.08338,-5.90136 9.66872,-16.47374 11.50775,-18.47503 1.69973,-1.8497 2.10045,-2.05033 3.06456,-1.53436 1.53214,0.81998 1.39281,2.38692 -0.57147,6.42667 -1.75419,3.6077 -3.4284,6.08749 -5.93178,8.78602 -0.81581,0.87939 -2.29507,2.79808 -3.28725,4.26373 -0.99219,1.46566 -2.30234,3.08134 -2.91145,3.59039 -1.53257,1.28081 -1.17948,3.39318 0.5334,3.19109 2.22803,-0.26287 5.7502,-4.52609 6.05832,-7.33297 0.18785,-1.71132 1.75227,-3.44576 3.10798,-3.44576 0.90712,0 1.01084,0.26017 0.74842,1.87733 -0.35039,2.15918 -0.40343,2.17466 3.97163,-1.15883 2.4239,-1.84684 3.89374,-3.71478 7.57968,-9.63256 6.64981,-10.67629 9.19329,-13.63205 11.49873,-13.36257 1.91359,0.22367 1.93263,1.48128 0.0679,4.48542 -0.88819,1.43091 -1.8324,3.08132 -2.09824,3.66759 -0.39954,0.88109 -3.12772,3.59358 -8.5963,8.54685 -0.82911,0.75098 -4.67365,8.07609 -6.07383,11.57265 -0.64858,1.61962 -0.66569,1.99863 -0.0902,1.99863 0.39055,0 0.84329,0.50935 1.00609,1.1319 0.34846,1.33251 1.62252,1.15752 5.98812,-0.82244 2.05201,-0.93066 3.15255,-1.90876 4.60992,-4.09704 2.25892,-3.3918 4.44734,-5.27286 6.13443,-5.27286 2.46728,0 0.95284,3.28206 -3.18025,6.89216 -1.99951,1.7465 -2.47152,2.87904 -1.46034,3.50398 0.85313,0.52727 4.92931,-1.75731 10.20798,-5.72127 2.67801,-2.01103 5.25297,-3.57837 5.72214,-3.48298 0.62487,0.12705 0.84174,0.76105 0.81084,2.37042 -0.0343,1.78625 0.11516,2.13943 0.79945,1.88912 0.4629,-0.16932 1.03343,-0.62575 1.26785,-1.01427 0.23442,-0.38853 1.17944,-1.09593 2.10005,-1.57199 1.57567,-0.81481 1.7226,-0.80699 2.50511,0.13342 0.45719,0.54945 1.50789,1.30135 2.33487,1.6709 2.38636,1.06637 1.71101,2.54422 -1.11998,2.45084 -1.24589,-0.0411 -2.59095,-0.34503 -2.98903,-0.6754 -1.2051,-1.00015 -3.54846,0.45594 -7.85464,4.88062 -1.6572,1.7028 -2.37187,1.82789 -3.04491,0.53296 -0.59195,-1.13891 -0.27122,-1.98999 1.72076,-4.56621 1.81054,-2.34156 1.46337,-3.19403 -0.61602,-1.51257 -3.14905,2.54642 -8.83552,6.08214 -10.5378,6.55217 -1.3329,0.36803 -2.30697,0.28057 -3.79364,-0.3406 -2.01789,-0.84313 -4.58399,-0.67624 -5.90054,0.38375 -0.35979,0.28968 -2.03863,0.51121 -3.73077,0.4923 -2.47817,-0.0277 -3.25801,-0.25726 -4.00929,-1.18024 -1.04174,-1.27983 -1.21916,-3.76038 -0.38098,-5.32654 0.73298,-1.36958 0.27812,-1.30498 -1.08063,0.15347 -0.7679,0.82424 -1.62501,1.14779 -2.81884,1.06405 -1.41712,-0.0994 -1.90079,0.17708 -2.78136,1.58991 -0.58627,0.94062 -2.13387,2.52328 -3.43913,3.517 -2.08726,1.58909 -2.63115,1.76553 -4.51424,1.46441 -1.17759,-0.1883 -2.31127,-0.61777 -2.51931,-0.95438 -0.52978,-0.85722 -3.30629,0.70697 -8.4318,4.75018 -3.03176,2.39157 -4.33974,3.80621 -4.79517,5.18618 -0.34444,1.04366 -1.80835,3.70835 -3.25314,5.92155 -1.44478,2.21319 -2.62688,4.14296 -2.62688,4.28839 0,0.14542 -0.69432,1.03739 -1.54294,1.98214 -0.84861,0.94476 -2.70733,3.01123 -4.13049,4.59217 -2.46084,2.73366 -4.98823,4.32062 -6.88103,4.32062 -0.71468,0 -0.8002,-0.37411 -0.49648,-2.17182 z m 6.36834,-4.34501 c 2.16206,-2.64282 2.53322,-3.12752 4.6005,-6.00789 3.12612,-4.35568 2.92697,-4.4696 -0.93168,-0.53297 -4.19096,4.27565 -7.11259,7.87241 -7.11259,8.75616 0,0.95135 1.80091,-0.20714 3.44377,-2.2153 z m 38.33039,-44.34356 c 0.27575,-1.09804 0.27291,-1.09824 -0.53634,-0.0379 -0.44746,0.58626 -1.16605,1.78544 -1.59687,2.66484 l -0.78331,1.5989 1.31965,-1.56095 c 0.72581,-0.85852 1.4444,-2.05769 1.59687,-2.66483 z m 21.45156,-7.88863 c 0.69481,-1.09342 1.26329,-2.13541 1.26329,-2.31554 0,-0.47748 -3.67284,3.99479 -4.3642,5.31412 l -0.58761,1.12132 1.21262,-1.06593 c 0.66694,-0.58627 1.7811,-1.96055 2.4759,-3.05397 z m -221.14511,53.61352 c -0.18125,-0.18126 0.0207,-1.16781 0.44877,-2.19234 0.98749,-2.36341 0.98667,-2.3739 -0.29559,-3.75024 -2.59137,-2.78151 -2.79057,-7.0803 -0.61857,-13.34845 0.82793,-2.38931 1.68851,-4.52621 1.91239,-4.74867 0.22388,-0.22246 0.75675,-1.24389 1.18417,-2.26985 0.4274,-1.02596 1.37238,-2.72748 2.09993,-3.78116 1.52525,-2.20894 1.29045,-3.50384 -0.77862,-4.29399 -1.34959,-0.51539 -1.36075,-0.55561 -0.35842,-1.29159 0.56901,-0.4178 1.50728,-0.75964 2.08504,-0.75964 2.44183,0 5.63126,-2.72682 10.43261,-8.91941 6.11832,-7.89118 12.6501,-14.52074 14.31249,-14.52674 1.54997,-0.006 2.32414,1.88623 1.5249,3.72637 -1.78935,4.11978 -9.99603,12.95936 -15.93922,17.16846 -5.3557,3.79302 -7.69824,6.81506 -5.28274,6.81506 1.58786,0 8.52288,-2.52251 10.18097,-3.70317 1.78037,-1.26774 3.76953,-1.43952 3.76953,-0.32554 0,0.4224 -0.23984,0.91622 -0.53297,1.09739 -0.29313,0.18117 -0.53297,0.68343 -0.53297,1.11614 0,0.6327 0.21794,0.67011 1.11309,0.19104 1.89043,-1.01172 5.30938,-4.34339 6.17503,-6.01737 0.78226,-1.51272 0.7628,-1.63827 -0.38845,-2.50666 -1.15577,-0.8718 -1.18006,-1.03454 -0.52405,-3.51075 0.73018,-2.75619 3.99605,-8.75107 5.81967,-10.68268 1.32616,-1.40469 3.18505,-2.06268 3.8758,-1.37192 1.1296,1.1296 0.60439,5.67565 -1.08303,9.37447 -1.90931,4.18519 -2.11761,5.33435 -0.62235,3.43342 0.57285,-0.72825 3.04156,-3.4068 5.48604,-5.95233 3.41813,-3.55945 4.80826,-4.65489 6.01973,-4.74366 1.26306,-0.0925 1.60857,0.11821 1.74342,1.0634 0.3904,2.73632 -4.06119,7.98527 -10.26398,12.10245 -2.37846,1.57874 -3.35636,2.65313 -4.34249,4.77102 -1.20414,2.58609 -1.63751,4.59882 -0.9902,4.59882 0.16112,0 1.00759,-0.36956 1.88103,-0.82124 1.68508,-0.87138 2.62272,-0.6667 2.62272,0.57252 0,1.12719 -2.69017,2.30126 -4.80297,2.09614 -1.02252,-0.0993 -2.02813,-0.19579 -2.2347,-0.2145 -0.20656,-0.0187 -0.53149,-0.86516 -0.72206,-1.88099 -0.26916,-1.43472 -0.0349,-2.40448 1.04956,-4.34478 1.62259,-2.90314 1.46868,-3.63433 -0.30572,-1.45243 -3.11761,3.83358 -7.22375,7.41181 -9.15793,7.98052 -2.39161,0.70321 -4.07893,0.40454 -4.07893,-0.72201 0,-0.53845 -0.30043,-0.67824 -0.93269,-0.43396 -4.13269,1.5967 -7.51689,2.45773 -9.11011,2.31786 -1.78988,-0.15715 -1.97486,-0.0126 -3.53947,2.7655 -2.72672,4.84156 -5.24951,16.86264 -4.02071,19.15866 l 0.64125,1.19818 0.87448,-1.25122 c 6.21447,-8.89183 17.28587,-15.91256 19.26418,-12.21604 0.74957,1.40058 0.0437,4.00332 -1.96206,7.23405 -2.64399,4.25885 -11.54872,9.27353 -16.53767,9.31316 -1.17826,0.009 -1.73214,0.2694 -1.73214,0.81321 0,0.4397 -0.23984,0.79945 -0.53297,0.79945 -0.29313,0 -0.53297,0.33039 -0.53297,0.7342 0,0.88341 -1.29617,2.05571 -1.76005,1.59184 z m 11.79783,-7.98956 c 3.22788,-1.71628 7.37364,-5.82328 8.64493,-8.56411 1.26636,-2.7302 1.27018,-2.8329 0.10438,-2.80497 -2.60337,0.0624 -12.57929,7.98568 -14.7208,11.69192 l -0.99691,1.72531 2.28388,-0.38587 c 1.25614,-0.21222 3.36417,-0.96025 4.68452,-1.66228 z m 8.61607,-37.98199 c 0,-0.26136 0.59959,-0.62568 1.33242,-0.80961 0.73283,-0.18393 1.33241,-0.60541 1.33241,-0.93663 0,-0.33122 0.77947,-1.3608 1.73215,-2.28796 1.58111,-1.53875 4.66346,-5.76114 4.66346,-6.38829 0,-0.70568 -1.60153,0.47293 -1.89376,1.39367 -0.18449,0.58127 -0.45995,0.93235 -0.61212,0.78017 -0.26709,-0.26708 -6.37988,6.46281 -7.24725,7.97887 -0.24918,0.43553 -0.19383,0.74496 0.13324,0.74496 0.3077,0 0.55945,-0.21383 0.55945,-0.47518 z m 16.47224,-3.48502 c 0.90675,-2.17811 1.64864,-4.33663 1.64864,-4.7967 0,-1.17339 -1.45022,-1.04424 -2.10963,0.18787 -0.30153,0.56341 -0.85239,1.34287 -1.22414,1.73214 -1.07493,1.12559 -1.9959,3.55414 -1.9959,5.26307 0,1.19284 0.24599,1.57382 1.0162,1.57382 0.76053,0 1.43098,-0.99636 2.66483,-3.9602 z m 10.27434,-1.08809 c 1.16833,-1.32728 1.91495,-2.41324 1.65917,-2.41324 -0.48021,0 -4.69115,4.25513 -6.05138,6.11488 -1.34961,1.84525 1.97878,-0.95984 4.39221,-3.70164 z m 100.31878,26.95806 c -2.44642,-1.4918 -3.67003,-3.3316 -4.49053,-6.75181 -0.70546,-2.94071 -0.67508,-3.24378 0.73525,-7.33318 1.29744,-3.76209 2.81393,-6.50612 5.64317,-10.21109 1.63349,-2.1391 7.78697,-7.80502 9.30033,-8.56343 0.85115,-0.42654 2.12174,-0.77553 2.82353,-0.77553 1.30805,0 3.62881,-2.06848 4.14481,-3.69425 0.60049,-1.89199 10.36767,-10.61104 13.74164,-12.267 5.18221,-2.54347 9.34788,-2.32443 10.54025,0.55421 0.88045,2.12561 -0.17166,6.92527 -2.09219,9.5444 -2.53719,3.46012 -5.59652,6.47948 -7.6018,7.5025 -2.7312,1.39335 -3.31684,0.30565 -0.92897,-1.72537 6.5483,-5.5697 9.202,-9.46699 8.90438,-13.07715 -0.15734,-1.90847 -0.27609,-2.0323 -2.03249,-2.11932 -3.51035,-0.17391 -6.62058,1.57627 -12.71836,7.15681 -3.45831,3.16497 -5.39416,5.18447 -5.39839,5.63164 -0.002,0.24079 -0.36388,0.79755 -0.80358,1.23725 -0.91067,0.91067 -1.04824,1.78925 -0.28017,1.78925 0.81526,0 2.14556,2.97407 2.14556,4.7967 0,2.3509 -1.38314,4.72224 -2.9895,5.12542 -2.09151,0.52492 -3.40065,-1.12857 -3.77647,-4.76981 -0.17494,-1.69503 -0.57135,-3.0099 -0.90337,-2.99641 -2.0838,0.0847 -6.32622,3.42821 -9.16172,7.22055 -0.85597,1.14481 -1.95158,2.52037 -2.4347,3.05681 -0.48312,0.53644 -1.00447,1.6159 -1.15856,2.39879 -0.15409,0.78289 -0.82124,3.14499 -1.48257,5.2491 -1.06052,3.37422 -1.12454,4.08555 -0.54253,6.02813 0.56424,1.88325 1.02231,2.35986 3.16042,3.28836 2.03181,0.88233 3.16651,1.02622 6.05334,0.76763 1.95404,-0.17504 3.93066,-0.46325 4.39248,-0.64047 1.10142,-0.42265 1.80712,1.32461 0.79309,1.96365 -1.63495,1.03032 -7.4957,2.62132 -9.64927,2.61944 -1.29855,-0.001 -2.99835,-0.43582 -3.93308,-1.00582 z M 431.82609,244.629 c 0.1714,-0.44664 -0.16243,-1.28539 -0.74242,-1.86539 -1.02793,-1.02792 -1.05385,-1.02869 -1.05385,-0.0315 0,2.30776 1.16608,3.53916 1.79627,1.89689 z m -65.35259,26.37014 c -1.09059,-0.65728 -1.21396,-2.68521 -0.26648,-4.3804 0.36641,-0.65557 1.71521,-2.46414 2.99733,-4.01905 1.88624,-2.28757 2.59823,-2.79613 3.73077,-2.66483 0.84001,0.0974 1.61,0.64175 1.92575,1.36145 0.62724,1.42968 1.13055,1.46243 5.14844,0.33507 4.67557,-1.3119 5.93614,-0.18591 3.65238,3.26245 -0.5824,0.8794 -1.0605,1.76661 -1.06242,1.97159 -0.002,0.20498 1.66797,-0.57449 3.71091,-1.73214 2.04293,-1.15766 4.08905,-2.10483 4.54694,-2.10483 1.26378,0 1.50477,1.31781 0.57115,3.12323 -0.46091,0.8913 -0.83801,2.35948 -0.83801,3.26263 0,1.84632 -1.17131,2.627 -2.40514,1.60301 -0.43596,-0.36182 -0.79266,-1.34799 -0.79266,-2.19149 0,-0.84351 -0.11141,-1.53364 -0.24758,-1.53364 -0.13616,0 -1.32153,0.59958 -2.63415,1.33241 -2.65091,1.47999 -5.19106,1.72302 -6.13398,0.58687 -0.48448,-0.58376 -0.32391,-1.18 0.74004,-2.74781 0.74733,-1.10125 1.26825,-2.09281 1.15761,-2.20345 -0.11065,-0.11065 -1.20679,-0.0403 -2.43587,0.15616 -1.95523,0.31266 -2.3661,0.63145 -3.28554,2.54927 -0.57796,1.20556 -1.60404,2.59347 -2.28016,3.08424 -1.60632,1.16597 -4.62099,1.65942 -5.79933,0.94926 z m 4.60881,-3.45367 c 1.4151,-0.92721 1.58333,-3.0813 0.26053,-3.3358 -0.73229,-0.14089 -2.60423,2.61161 -2.60423,3.82927 0,0.56604 1.07077,0.34058 2.3437,-0.49347 z m -16.04079,0.99397 c -0.15075,-0.39285 -0.90798,-0.71796 -1.68273,-0.72245 -2.77472,-0.0161 -3.04735,-0.68564 -1.49108,-3.66196 0.77817,-1.48823 1.41486,-2.92065 1.41486,-3.18317 0,-0.26252 -1.04801,-0.35918 -2.3289,-0.21481 -3.5317,0.39807 -3.56956,-0.6883 -0.0778,-2.23252 2.29026,-1.01287 3.28238,-1.20203 4.29169,-0.81829 1.43062,0.54392 1.76316,2.41891 0.76108,4.29131 -0.7952,1.48586 -0.43205,1.2947 2.07986,-1.09483 6.13733,-5.8383 9.73604,-1.04051 4.33997,5.78604 -1.97839,2.50285 -2.21486,2.63781 -4.55973,2.60236 -1.54688,-0.0234 -2.57579,-0.30491 -2.74723,-0.75168 z m 6.68934,-5.87568 c 0.97901,-1.86181 0.78638,-2.4309 -0.57603,-1.70176 -2.20924,1.18235 -3.37376,3.33404 -2.72268,5.03072 0.29785,0.77619 2.0923,-1.03471 3.29871,-3.32896 z m -34.43043,3.20952 c -0.36642,-0.14785 -0.66621,-0.60859 -0.66621,-1.02386 0,-1.01832 -1.55919,-0.95618 -2.73626,0.10905 -0.54543,0.49361 -1.34032,0.71616 -1.85395,0.51906 -0.81099,-0.31121 -0.78681,-0.46459 0.24663,-1.56465 0.63018,-0.67079 1.14577,-1.38403 1.14577,-1.58499 0,-0.20095 0.48842,-0.85379 1.08538,-1.45075 0.59696,-0.59696 0.93607,-1.32695 0.75359,-1.6222 -0.37731,-0.6105 -2.43504,0.56523 -5.00683,2.86077 -2.04935,1.82922 -4.27443,2.74407 -4.97358,2.04492 -0.28208,-0.28208 -0.3093,-0.82196 -0.0615,-1.21898 0.2447,-0.39196 0.48843,-0.95249 0.54163,-1.24562 0.0532,-0.29313 0.28049,-1.01264 0.50509,-1.5989 0.40281,-1.05147 0.39266,-1.05216 -0.74796,-0.0506 -0.63597,0.55841 -1.1563,1.30285 -1.1563,1.65431 0,0.96177 -2.49489,3.45951 -3.45557,3.45951 -1.49326,0 -1.49948,-1.55716 -0.014,-3.50473 1.57399,-2.0636 1.40394,-2.98852 -0.34827,-1.89425 -0.79669,0.49754 -1.26633,0.52799 -1.68506,0.10926 -1.02666,-1.02666 0.98176,-2.37144 3.76279,-2.51946 1.39676,-0.0743 3.32513,-0.44116 4.28527,-0.81517 2.09127,-0.81463 3.60726,-0.11366 3.54111,1.63735 -0.0398,1.05213 0.0375,1.07614 1.06593,0.33126 1.82354,-1.32077 5.01268,-2.93767 5.79421,-2.93767 0.40184,0 1.04336,0.58435 1.42559,1.29856 0.60408,1.12873 0.79508,1.19843 1.46055,0.53296 1.00525,-1.00525 2.28834,-0.97887 2.28834,0.0471 0,0.44695 0.61909,1.04802 1.37574,1.3357 1.93034,0.73392 1.35317,1.74844 -1.37531,2.41745 -1.99073,0.48811 -2.34806,0.78778 -2.52627,2.11858 -0.20593,1.53766 -1.02729,2.94781 -1.66991,2.86696 -0.18396,-0.0231 -0.63426,-0.16305 -1.00067,-0.3109 z m -103.52885,-36.2853 c 0,-0.23871 0.78397,-1.26645 1.74215,-2.28386 0.95819,-1.01742 2.38997,-2.80919 3.18174,-3.98171 0.79177,-1.17253 2.0367,-2.57789 2.76651,-3.12303 0.7298,-0.54513 2.12799,-1.74431 3.10709,-2.66483 4.11923,-3.87283 5.71599,-4.90136 11.26809,-7.25817 1.43675,-0.60989 3.31857,-1.79943 4.18182,-2.64341 0.86325,-0.84398 2.02644,-1.654 2.58488,-1.80003 1.15203,-0.30127 0.94229,0.27987 -0.79744,2.20948 l -1.11977,1.24199 1.53134,1.1155 c 2.87157,2.0918 3.80092,6.55488 2.04361,9.81431 -0.50069,0.92868 -1.8194,2.66749 -2.93046,3.86401 -2.23437,2.40624 -4.48285,2.86744 -6.63398,1.36073 -2.27381,-1.59264 -2.02574,-7.51356 0.46112,-11.00603 1.36057,-1.91074 0.49447,-1.96444 -2.65401,-0.16454 -1.27573,0.72929 -2.64635,1.32599 -3.04581,1.32599 -0.39947,0 -0.98259,0.47889 -1.29584,1.0642 -0.31324,0.5853 -1.4609,1.5483 -2.55035,2.13998 -1.08944,0.59169 -2.94014,2.25476 -4.11267,3.69573 -1.17252,1.44096 -2.55158,2.77256 -3.06456,2.95911 -0.51298,0.18656 -0.93269,0.56012 -0.93269,0.83015 0,0.68061 -1.67259,2.60951 -2.79808,3.22685 -0.51298,0.28138 -0.93269,0.31629 -0.93269,0.0776 z m 27.35306,-8.11409 c 1.40403,-2.37685 1.31717,-6.16001 -0.17798,-7.75153 -0.68502,-0.72918 -1.62481,-1.32578 -2.08841,-1.32578 -1.14703,0 -3.44308,5.07457 -3.4621,7.65168 -0.0301,4.08157 3.6226,4.99062 5.72849,1.42563 z m 3.55903,-16.97552 c 0,-0.65096 1.8217,-2.22816 2.57356,-2.22816 1.16984,0 0.62829,1.03647 -0.97466,1.86538 -0.8794,0.45476 -1.5989,0.618 -1.5989,0.36278 z"
       id="path3050"
       inkscape:connector-curvature="0" />
  </g>
</svg>
